<svg id="Capa_1" enable-background="new 0 0 512 512" height="512" viewBox="0 0 512 512" width="512" xmlns="http://www.w3.org/2000/svg"><g><path d="m41 147c0 19.84 12.907 36.723 30.764 42.692l15.75 251.986c2.464 39.433 35.342 70.322 74.853 70.322h187.266c39.511 0 72.39-30.889 74.854-70.321l15.75-251.986c17.856-5.97 30.763-22.853 30.763-42.693v-15h-430zm134.323 103.212c20.087-24.284 49.493-38.212 80.677-38.212 43.24 0 80.454 26.274 96.528 63.694l1.695-2.936c4.142-7.174 13.315-9.635 20.49-5.49 7.175 4.142 9.633 13.315 5.49 20.49l-21.213 36.742c-2.778 4.812-7.82 7.503-13.004 7.503-2.545 0-5.124-.648-7.486-2.013l-36.742-21.213c-7.175-4.142-9.633-13.315-5.49-20.49 4.142-7.174 13.315-9.634 20.49-5.49l8.202 4.735c-11.473-26.747-38.061-45.532-68.96-45.532-22.212 0-43.192 9.963-57.561 27.333-5.281 6.383-14.735 7.278-21.119 1.997-6.383-5.28-7.278-14.735-1.997-21.118zm-43.526 96.03 21.213-36.742c4.143-7.174 13.315-9.634 20.49-5.49l36.742 21.213c7.175 4.142 9.633 13.315 5.49 20.49-4.143 7.174-13.316 9.632-20.49 5.49l-8.202-4.735c11.473 26.747 38.061 45.532 68.96 45.532 22.212 0 43.192-9.963 57.561-27.333 5.281-6.384 14.735-7.278 21.119-1.997 6.384 5.28 7.278 14.735 1.997 21.118-20.087 24.284-49.493 38.212-80.677 38.212-43.24 0-80.454-26.274-96.528-63.694l-1.695 2.936c-2.778 4.812-7.82 7.502-13.004 7.503-2.545 0-5.124-.648-7.486-2.013-7.175-4.141-9.633-13.315-5.49-20.49z"/><path d="m426 42h-80.529l-10.499-22.049c-5.773-12.12-18.176-19.951-31.6-19.951h-94.744c-13.424 0-25.827 7.831-31.601 19.952l-10.498 22.048h-80.529c-24.813 0-45 20.187-45 45v15h430v-15c0-24.813-20.187-45-45-45z"/></g></svg>